<?xml version="1.0" encoding="utf-8"?>
<!-- Generator: Adobe Illustrator 27.5.0, SVG Export Plug-In . SVG Version: 6.00 Build 0)  -->
<svg version="1.1" id="Camada_1" xmlns="http://www.w3.org/2000/svg" xmlns:xlink="http://www.w3.org/1999/xlink" x="0px" y="0px"
	 viewBox="0 0 1000 780" style="enable-background:new 0 0 1000 780;" xml:space="preserve">
<style type="text/css">
	.st0{fill:#22B573;}
	.st1{fill:#FFCA08;}
</style>
<g>
	<g>
		<polygon class="st0" points="407.2,144.4 594.3,144.4 688.7,253.7 948.7,0.4 948.7,192.4 342.7,780.2 342.7,590.7 591,348.1 		"/>
		<path class="st1" d="M725.2,482c0-1.7,94.4-91.1,94.4-91.1L1000,591.2H821.5L725.2,482z"/>
	</g>
	<g>
		<path d="M-0.7,590.5V120.6h107v107h137.3c56.3,0,84.7,28.4,84.7,85.3v195.4c0,55-29.1,82.2-86.6,82.2H-0.7z M221.3,353.7
			c0-12.4-6.2-18.5-18.6-18.5h-96.4v148.4h96.4c12.4,0,18.6-6.8,18.6-19.8V353.7z"/>
		<path d="M343.1,590.5V312.9c0-56.3,26.6-85.3,85.3-85.3h119.9v107h-79.1c-12.4,0-18.5,6.2-18.5,18.5v237.4H343.1z"/>
	</g>
</g>
</svg>
